<svg width="1171" height="32" viewBox="0 0 1171 32" fill="none" xmlns="http://www.w3.org/2000/svg">
<path d="M759.23 10.72V22H757.758V16.784H752.03V22H750.574V10.72H752.03V15.6H757.758V10.72H759.23ZM765.543 13.104C766.385 13.104 767.137 13.2853 767.799 13.648C768.471 14.0107 768.993 14.5333 769.367 15.216C769.751 15.8987 769.943 16.6987 769.943 17.616C769.943 18.5333 769.751 19.3333 769.367 20.016C768.993 20.688 768.471 21.2053 767.799 21.568C767.137 21.9307 766.385 22.112 765.543 22.112C764.7 22.112 763.943 21.9307 763.271 21.568C762.609 21.2053 762.087 20.688 761.703 20.016C761.319 19.3333 761.127 18.5333 761.127 17.616C761.127 16.6987 761.319 15.8987 761.703 15.216C762.087 14.5333 762.609 14.0107 763.271 13.648C763.943 13.2853 764.7 13.104 765.543 13.104ZM765.543 14.384C765.02 14.384 764.535 14.5013 764.087 14.736C763.649 14.9707 763.292 15.3333 763.015 15.824C762.748 16.304 762.615 16.9013 762.615 17.616C762.615 18.32 762.748 18.9173 763.015 19.408C763.292 19.888 763.649 20.2453 764.087 20.48C764.535 20.7147 765.02 20.832 765.543 20.832C766.065 20.832 766.545 20.7147 766.983 20.48C767.431 20.2453 767.788 19.888 768.055 19.408C768.332 18.9173 768.471 18.32 768.471 17.616C768.471 16.9013 768.332 16.304 768.055 15.824C767.788 15.3333 767.431 14.9707 766.983 14.736C766.545 14.5013 766.065 14.384 765.543 14.384ZM782.64 13.072C783.664 13.072 784.485 13.4027 785.104 14.064C785.733 14.7147 786.048 15.6587 786.048 16.896V22H784.592V17.024C784.592 16.16 784.379 15.4987 783.952 15.04C783.536 14.5813 782.96 14.352 782.224 14.352C781.456 14.352 780.837 14.608 780.368 15.12C779.909 15.6213 779.68 16.3627 779.68 17.344V22H778.224V17.024C778.224 16.16 778.011 15.4987 777.584 15.04C777.157 14.5813 776.581 14.352 775.856 14.352C775.077 14.352 774.453 14.608 773.984 15.12C773.525 15.6213 773.296 16.3627 773.296 17.344V22H771.84V13.216H773.296V15.216C773.509 14.5227 773.888 13.9947 774.432 13.632C774.987 13.2587 775.621 13.072 776.336 13.072C777.083 13.072 777.728 13.264 778.272 13.648C778.827 14.0213 779.221 14.576 779.456 15.312C779.701 14.5973 780.112 14.048 780.688 13.664C781.264 13.2693 781.915 13.072 782.64 13.072ZM796.389 17.12C796.389 17.4293 796.367 17.696 796.325 17.92H789.301C789.333 18.9227 789.615 19.6747 790.149 20.176C790.693 20.6773 791.354 20.928 792.133 20.928C792.837 20.928 793.423 20.752 793.893 20.4C794.373 20.0373 794.666 19.5573 794.773 18.96H796.325C796.218 19.568 795.978 20.112 795.605 20.592C795.242 21.072 794.767 21.4453 794.181 21.712C793.594 21.9787 792.933 22.112 792.197 22.112C791.354 22.112 790.607 21.9307 789.957 21.568C789.306 21.2053 788.794 20.688 788.421 20.016C788.058 19.3333 787.877 18.5333 787.877 17.616C787.877 16.6987 788.058 15.8987 788.421 15.216C788.794 14.5333 789.306 14.0107 789.957 13.648C790.607 13.2853 791.354 13.104 792.197 13.104C793.05 13.104 793.791 13.2853 794.421 13.648C795.061 14.0107 795.546 14.496 795.877 15.104C796.218 15.712 796.389 16.384 796.389 17.12ZM794.917 17.216C794.949 16.5653 794.842 16.0213 794.597 15.584C794.351 15.1467 794.015 14.8213 793.589 14.608C793.162 14.3947 792.698 14.288 792.197 14.288C791.397 14.288 790.725 14.5387 790.181 15.04C789.637 15.5307 789.343 16.256 789.301 17.216H794.917Z" fill="white"/>
<path d="M48.0883 10.292V23H45.5323V17.474H40.0963V23H37.5583V10.292H40.0963V15.44H45.5323V10.292H48.0883ZM54.9983 12.902C55.9703 12.902 56.8403 13.106 57.6083 13.514C58.3883 13.922 59.0003 14.516 59.4443 15.296C59.8883 16.064 60.1103 16.97 60.1103 18.014C60.1103 19.058 59.8883 19.964 59.4443 20.732C59.0003 21.5 58.3883 22.094 57.6083 22.514C56.8403 22.922 55.9703 23.126 54.9983 23.126C54.0263 23.126 53.1503 22.922 52.3703 22.514C51.6023 22.094 50.9963 21.5 50.5523 20.732C50.1083 19.964 49.8863 19.058 49.8863 18.014C49.8863 16.97 50.1083 16.064 50.5523 15.296C50.9963 14.516 51.6023 13.922 52.3703 13.514C53.1503 13.106 54.0263 12.902 54.9983 12.902ZM54.9983 15.098C54.2903 15.098 53.6903 15.35 53.1983 15.854C52.7063 16.346 52.4603 17.066 52.4603 18.014C52.4603 18.962 52.7063 19.688 53.1983 20.192C53.6903 20.684 54.2903 20.93 54.9983 20.93C55.7063 20.93 56.3063 20.684 56.7983 20.192C57.2903 19.688 57.5363 18.962 57.5363 18.014C57.5363 17.066 57.2903 16.346 56.7983 15.854C56.3063 15.35 55.7063 15.098 54.9983 15.098ZM66.512 12.902C67.484 12.902 68.354 13.106 69.122 13.514C69.902 13.922 70.514 14.516 70.958 15.296C71.402 16.064 71.624 16.97 71.624 18.014C71.624 19.058 71.402 19.964 70.958 20.732C70.514 21.5 69.902 22.094 69.122 22.514C68.354 22.922 67.484 23.126 66.512 23.126C65.54 23.126 64.664 22.922 63.884 22.514C63.116 22.094 62.51 21.5 62.066 20.732C61.622 19.964 61.4 19.058 61.4 18.014C61.4 16.97 61.622 16.064 62.066 15.296C62.51 14.516 63.116 13.922 63.884 13.514C64.664 13.106 65.54 12.902 66.512 12.902ZM66.512 15.098C65.804 15.098 65.204 15.35 64.712 15.854C64.22 16.346 63.974 17.066 63.974 18.014C63.974 18.962 64.22 19.688 64.712 20.192C65.204 20.684 65.804 20.93 66.512 20.93C67.22 20.93 67.82 20.684 68.312 20.192C68.804 19.688 69.05 18.962 69.05 18.014C69.05 17.066 68.804 16.346 68.312 15.854C67.82 15.35 67.22 15.098 66.512 15.098Z" fill="white"/>
<path d="M80.5096 16.448C81.2776 16.604 81.8896 16.97 82.3456 17.546C82.8136 18.11 83.0476 18.776 83.0476 19.544C83.0476 20.612 82.6876 21.458 81.9676 22.082C81.2596 22.694 80.2276 23 78.8716 23H73.4176V10.292H78.7636C80.0476 10.292 81.0316 10.574 81.7156 11.138C82.4116 11.702 82.7596 12.494 82.7596 13.514C82.7596 14.306 82.5496 14.954 82.1296 15.458C81.7216 15.962 81.1816 16.292 80.5096 16.448ZM75.9556 15.62H78.2416C78.8776 15.62 79.3576 15.482 79.6816 15.206C80.0176 14.918 80.1856 14.51 80.1856 13.982C80.1856 13.454 80.0236 13.046 79.6996 12.758C79.3756 12.47 78.8776 12.326 78.2056 12.326H75.9556V15.62ZM78.3676 20.93C79.0396 20.93 79.5556 20.786 79.9156 20.498C80.2756 20.198 80.4556 19.766 80.4556 19.202C80.4556 18.638 80.2696 18.206 79.8976 17.906C79.5376 17.594 79.0216 17.438 78.3496 17.438H75.9556V20.93H78.3676ZM88.7318 12.902C89.5718 12.902 90.2918 13.1 90.8918 13.496C91.4918 13.892 91.9178 14.426 92.1698 15.098V13.028H94.6898V23H92.1698V20.912C91.9178 21.584 91.4918 22.124 90.8918 22.532C90.2918 22.928 89.5718 23.126 88.7318 23.126C87.8918 23.126 87.1358 22.922 86.4638 22.514C85.7918 22.106 85.2638 21.518 84.8798 20.75C84.5078 19.97 84.3218 19.058 84.3218 18.014C84.3218 16.97 84.5078 16.064 84.8798 15.296C85.2638 14.516 85.7918 13.922 86.4638 13.514C87.1358 13.106 87.8918 12.902 88.7318 12.902ZM89.5238 15.116C88.7318 15.116 88.0958 15.374 87.6158 15.89C87.1358 16.406 86.8958 17.114 86.8958 18.014C86.8958 18.914 87.1358 19.622 87.6158 20.138C88.0958 20.642 88.7318 20.894 89.5238 20.894C90.2918 20.894 90.9218 20.636 91.4138 20.12C91.9178 19.592 92.1698 18.89 92.1698 18.014C92.1698 17.126 91.9178 16.424 91.4138 15.908C90.9218 15.38 90.2918 15.116 89.5238 15.116ZM102.93 12.884C104.082 12.884 105 13.262 105.684 14.018C106.368 14.774 106.71 15.836 106.71 17.204V23H104.19V17.492C104.19 16.7 103.986 16.088 103.578 15.656C103.17 15.212 102.612 14.99 101.904 14.99C101.184 14.99 100.608 15.224 100.176 15.692C99.7439 16.16 99.5279 16.832 99.5279 17.708V23H96.9899V13.028H99.5279V15.026C99.7919 14.354 100.224 13.832 100.824 13.46C101.436 13.076 102.138 12.884 102.93 12.884ZM114.775 23L111.481 18.644V23H108.943V9.68H111.481V17.168L114.757 13.028H117.763L113.569 17.996L117.871 23H114.775Z" fill="#5CE1E6"/>
<path d="M861.182 19.392H856.222L855.278 22H853.71L857.886 10.928H859.534L863.694 22H862.126L861.182 19.392ZM860.766 18.256L858.702 12.56L856.638 18.256H860.766ZM870.016 13.104C870.795 13.104 871.488 13.2853 872.096 13.648C872.704 14.0107 873.179 14.5333 873.52 15.216C873.872 15.8987 874.048 16.6987 874.048 17.616C874.048 18.5333 873.872 19.3333 873.52 20.016C873.179 20.688 872.704 21.2053 872.096 21.568C871.488 21.9307 870.795 22.112 870.016 22.112C869.163 22.112 868.437 21.8987 867.84 21.472C867.253 21.0347 866.848 20.464 866.624 19.76V22H865.168V10.16H866.624V15.456C866.848 14.752 867.253 14.1867 867.84 13.76C868.437 13.3227 869.163 13.104 870.016 13.104ZM869.6 14.4C869.035 14.4 868.523 14.5333 868.064 14.8C867.605 15.056 867.248 15.4293 866.992 15.92C866.736 16.4107 866.608 16.976 866.608 17.616C866.608 18.256 866.736 18.8213 866.992 19.312C867.248 19.792 867.605 20.1653 868.064 20.432C868.523 20.6987 869.035 20.832 869.6 20.832C870.507 20.832 871.227 20.5493 871.76 19.984C872.304 19.408 872.576 18.6187 872.576 17.616C872.576 16.6133 872.304 15.8293 871.76 15.264C871.227 14.688 870.507 14.4 869.6 14.4ZM879.933 13.104C880.776 13.104 881.528 13.2853 882.189 13.648C882.861 14.0107 883.384 14.5333 883.757 15.216C884.141 15.8987 884.333 16.6987 884.333 17.616C884.333 18.5333 884.141 19.3333 883.757 20.016C883.384 20.688 882.861 21.2053 882.189 21.568C881.528 21.9307 880.776 22.112 879.933 22.112C879.091 22.112 878.333 21.9307 877.661 21.568C877 21.2053 876.477 20.688 876.093 20.016C875.709 19.3333 875.517 18.5333 875.517 17.616C875.517 16.6987 875.709 15.8987 876.093 15.216C876.477 14.5333 877 14.0107 877.661 13.648C878.333 13.2853 879.091 13.104 879.933 13.104ZM879.933 14.384C879.411 14.384 878.925 14.5013 878.477 14.736C878.04 14.9707 877.683 15.3333 877.405 15.824C877.139 16.304 877.005 16.9013 877.005 17.616C877.005 18.32 877.139 18.9173 877.405 19.408C877.683 19.888 878.04 20.2453 878.477 20.48C878.925 20.7147 879.411 20.832 879.933 20.832C880.456 20.832 880.936 20.7147 881.373 20.48C881.821 20.2453 882.179 19.888 882.445 19.408C882.723 18.9173 882.861 18.32 882.861 17.616C882.861 16.9013 882.723 16.304 882.445 15.824C882.179 15.3333 881.821 14.9707 881.373 14.736C880.936 14.5013 880.456 14.384 879.933 14.384ZM894.039 13.216V22H892.583V19.936C892.359 20.6507 891.959 21.2 891.383 21.584C890.817 21.9573 890.156 22.144 889.399 22.144C888.385 22.144 887.564 21.8187 886.935 21.168C886.305 20.5067 885.991 19.5627 885.991 18.336V13.216H887.447V18.192C887.447 19.0667 887.671 19.744 888.119 20.224C888.567 20.6933 889.175 20.928 889.943 20.928C890.743 20.928 891.383 20.672 891.863 20.16C892.343 19.6373 892.583 18.88 892.583 17.888V13.216H894.039ZM900.563 20.72V22H899.475C898.579 22 897.907 21.7867 897.459 21.36C897.022 20.9333 896.803 20.2187 896.803 19.216V14.48H895.491V13.216H896.803V11.024H898.275V13.216H900.547V14.48H898.275V19.248C898.275 19.8133 898.376 20.2027 898.579 20.416C898.792 20.6187 899.155 20.72 899.667 20.72H900.563ZM907.669 10.72V17.488C907.669 18.5973 907.914 19.4187 908.405 19.952C908.896 20.4747 909.573 20.736 910.437 20.736C911.29 20.736 911.957 20.4693 912.437 19.936C912.917 19.4027 913.157 18.5867 913.157 17.488V10.72H914.613V17.488C914.613 19.024 914.229 20.1813 913.461 20.96C912.704 21.728 911.685 22.112 910.405 22.112C909.136 22.112 908.117 21.728 907.349 20.96C906.592 20.1813 906.213 19.024 906.213 17.488V10.72H907.669ZM919.623 13.104C920.615 13.104 921.41 13.3653 922.007 13.888C922.615 14.4 922.983 15.0933 923.111 15.968H921.719C921.655 15.4453 921.436 15.0187 921.063 14.688C920.7 14.3467 920.21 14.176 919.591 14.176C919.068 14.176 918.658 14.304 918.359 14.56C918.071 14.8053 917.927 15.1413 917.927 15.568C917.927 15.888 918.023 16.1493 918.215 16.352C918.418 16.544 918.663 16.6933 918.951 16.8C919.25 16.896 919.655 17.0027 920.167 17.12C920.818 17.2693 921.34 17.424 921.735 17.584C922.14 17.7333 922.482 17.9787 922.759 18.32C923.047 18.6613 923.191 19.12 923.191 19.696C923.191 20.4107 922.919 20.992 922.375 21.44C921.842 21.888 921.127 22.112 920.231 22.112C919.186 22.112 918.332 21.8613 917.671 21.36C917.01 20.8587 916.62 20.16 916.503 19.264H917.911C917.964 19.7973 918.194 20.2293 918.599 20.56C919.015 20.8907 919.559 21.056 920.231 21.056C920.732 21.056 921.122 20.928 921.399 20.672C921.687 20.416 921.831 20.08 921.831 19.664C921.831 19.3227 921.73 19.0507 921.527 18.848C921.324 18.6453 921.074 18.4907 920.775 18.384C920.476 18.2773 920.066 18.1653 919.543 18.048C918.892 17.8987 918.37 17.7493 917.975 17.6C917.591 17.4507 917.26 17.216 916.983 16.896C916.716 16.5653 916.583 16.1227 916.583 15.568C916.583 14.832 916.855 14.24 917.399 13.792C917.943 13.3333 918.684 13.104 919.623 13.104Z" fill="white" fill-opacity="0.7"/>
<path d="M987.942 10.848V12.032H983.094V15.792H987.03V16.976H983.094V22H981.638V10.848H987.942ZM997.701 17.28C997.701 17.5573 997.685 17.8507 997.653 18.16H990.645C990.698 19.024 990.991 19.7013 991.525 20.192C992.069 20.672 992.725 20.912 993.493 20.912C994.122 20.912 994.645 20.768 995.061 20.48C995.487 20.1813 995.786 19.7867 995.957 19.296H997.525C997.29 20.1387 996.821 20.8267 996.117 21.36C995.413 21.8827 994.538 22.144 993.493 22.144C992.661 22.144 991.914 21.9573 991.253 21.584C990.602 21.2107 990.09 20.6827 989.717 20C989.343 19.3067 989.157 18.5067 989.157 17.6C989.157 16.6933 989.338 15.8987 989.701 15.216C990.063 14.5333 990.57 14.0107 991.221 13.648C991.882 13.2747 992.639 13.088 993.493 13.088C994.325 13.088 995.061 13.2693 995.701 13.632C996.341 13.9947 996.831 14.496 997.173 15.136C997.525 15.7653 997.701 16.48 997.701 17.28ZM996.197 16.976C996.197 16.4213 996.074 15.9467 995.829 15.552C995.583 15.1467 995.247 14.8427 994.821 14.64C994.405 14.4267 993.941 14.32 993.429 14.32C992.693 14.32 992.063 14.5547 991.541 15.024C991.029 15.4933 990.735 16.144 990.661 16.976H996.197ZM999.079 17.584C999.079 16.688 999.26 15.904 999.623 15.232C999.985 14.5493 1000.48 14.0213 1001.11 13.648C1001.75 13.2747 1002.46 13.088 1003.24 13.088C1004.01 13.088 1004.67 13.2533 1005.24 13.584C1005.8 13.9147 1006.23 14.3307 1006.5 14.832V13.232H1007.97V22H1006.5V20.368C1006.21 20.88 1005.78 21.3067 1005.21 21.648C1004.64 21.9787 1003.98 22.144 1003.22 22.144C1002.44 22.144 1001.74 21.952 1001.11 21.568C1000.48 21.184 999.985 20.6453 999.623 19.952C999.26 19.2587 999.079 18.4693 999.079 17.584ZM1006.5 17.6C1006.5 16.9387 1006.37 16.3627 1006.1 15.872C1005.84 15.3813 1005.47 15.008 1005.01 14.752C1004.57 14.4853 1004.07 14.352 1003.53 14.352C1002.98 14.352 1002.49 14.48 1002.04 14.736C1001.59 14.992 1001.23 15.3653 1000.97 15.856C1000.7 16.3467 1000.57 16.9227 1000.57 17.584C1000.57 18.256 1000.7 18.8427 1000.97 19.344C1001.23 19.8347 1001.59 20.2133 1002.04 20.48C1002.49 20.736 1002.98 20.864 1003.53 20.864C1004.07 20.864 1004.57 20.736 1005.01 20.48C1005.47 20.2133 1005.84 19.8347 1006.1 19.344C1006.37 18.8427 1006.5 18.2613 1006.5 17.6ZM1012.21 14.432V19.6C1012.21 20.0267 1012.3 20.3307 1012.48 20.512C1012.66 20.6827 1012.98 20.768 1013.43 20.768H1014.5V22H1013.19C1012.38 22 1011.77 21.8133 1011.36 21.44C1010.96 21.0667 1010.76 20.4533 1010.76 19.6V14.432H1009.62V13.232H1010.76V11.024H1012.21V13.232H1014.5V14.432H1012.21ZM1024.04 13.232V22H1022.58V20.704C1022.31 21.152 1021.92 21.504 1021.42 21.76C1020.92 22.0053 1020.38 22.128 1019.78 22.128C1019.1 22.128 1018.49 21.9893 1017.94 21.712C1017.4 21.424 1016.97 20.9973 1016.65 20.432C1016.34 19.8667 1016.18 19.1787 1016.18 18.368V13.232H1017.62V18.176C1017.62 19.04 1017.84 19.7067 1018.28 20.176C1018.72 20.6347 1019.31 20.864 1020.07 20.864C1020.85 20.864 1021.46 20.624 1021.91 20.144C1022.36 19.664 1022.58 18.9653 1022.58 18.048V13.232H1024.04ZM1027.95 14.656C1028.21 14.1547 1028.57 13.7653 1029.04 13.488C1029.52 13.2107 1030.1 13.072 1030.79 13.072V14.576H1030.4C1028.77 14.576 1027.95 15.4613 1027.95 17.232V22H1026.5V13.232H1027.95V14.656ZM1040.47 17.28C1040.47 17.5573 1040.45 17.8507 1040.42 18.16H1033.41C1033.46 19.024 1033.76 19.7013 1034.29 20.192C1034.83 20.672 1035.49 20.912 1036.26 20.912C1036.89 20.912 1037.41 20.768 1037.83 20.48C1038.25 20.1813 1038.55 19.7867 1038.72 19.296H1040.29C1040.06 20.1387 1039.59 20.8267 1038.88 21.36C1038.18 21.8827 1037.3 22.144 1036.26 22.144C1035.43 22.144 1034.68 21.9573 1034.02 21.584C1033.37 21.2107 1032.86 20.6827 1032.48 20C1032.11 19.3067 1031.92 18.5067 1031.92 17.6C1031.92 16.6933 1032.1 15.8987 1032.47 15.216C1032.83 14.5333 1033.34 14.0107 1033.99 13.648C1034.65 13.2747 1035.41 13.088 1036.26 13.088C1037.09 13.088 1037.83 13.2693 1038.47 13.632C1039.11 13.9947 1039.6 14.496 1039.94 15.136C1040.29 15.7653 1040.47 16.48 1040.47 17.28ZM1038.96 16.976C1038.96 16.4213 1038.84 15.9467 1038.59 15.552C1038.35 15.1467 1038.01 14.8427 1037.59 14.64C1037.17 14.4267 1036.71 14.32 1036.19 14.32C1035.46 14.32 1034.83 14.5547 1034.31 15.024C1033.79 15.4933 1033.5 16.144 1033.43 16.976H1038.96ZM1045.49 22.144C1044.82 22.144 1044.22 22.032 1043.68 21.808C1043.15 21.5733 1042.73 21.2533 1042.42 20.848C1042.11 20.432 1041.94 19.9573 1041.91 19.424H1043.41C1043.45 19.8613 1043.66 20.2187 1044.02 20.496C1044.39 20.7733 1044.88 20.912 1045.48 20.912C1046.03 20.912 1046.47 20.7893 1046.79 20.544C1047.11 20.2987 1047.27 19.9893 1047.27 19.616C1047.27 19.232 1047.1 18.9493 1046.76 18.768C1046.41 18.576 1045.89 18.3893 1045.17 18.208C1044.52 18.0373 1043.99 17.8667 1043.57 17.696C1043.17 17.5147 1042.81 17.2533 1042.52 16.912C1042.23 16.56 1042.08 16.1013 1042.08 15.536C1042.08 15.088 1042.22 14.6773 1042.48 14.304C1042.75 13.9307 1043.13 13.6373 1043.62 13.424C1044.11 13.2 1044.67 13.088 1045.3 13.088C1046.27 13.088 1047.05 13.3333 1047.65 13.824C1048.25 14.3147 1048.57 14.9867 1048.61 15.84H1047.16C1047.12 15.3813 1046.94 15.0133 1046.6 14.736C1046.27 14.4587 1045.82 14.32 1045.25 14.32C1044.73 14.32 1044.31 14.432 1044 14.656C1043.69 14.88 1043.54 15.1733 1043.54 15.536C1043.54 15.824 1043.63 16.064 1043.81 16.256C1044 16.4373 1044.24 16.5867 1044.52 16.704C1044.8 16.8107 1045.2 16.9333 1045.7 17.072C1046.33 17.2427 1046.84 17.4133 1047.24 17.584C1047.63 17.744 1047.97 17.9893 1048.24 18.32C1048.53 18.6507 1048.68 19.0827 1048.69 19.616C1048.69 20.096 1048.56 20.528 1048.29 20.912C1048.03 21.296 1047.65 21.6 1047.16 21.824C1046.68 22.0373 1046.12 22.144 1045.49 22.144Z" fill="white" fill-opacity="0.7"/>
<path d="M1114.71 19.072C1114.71 19.6053 1114.58 20.1013 1114.33 20.56C1114.07 21.0187 1113.68 21.392 1113.16 21.68C1112.64 21.968 1111.99 22.112 1111.22 22.112C1110.48 22.112 1109.81 21.9787 1109.22 21.712C1108.65 21.4347 1108.18 21.0613 1107.83 20.592C1107.49 20.112 1107.29 19.568 1107.24 18.96H1108.79C1108.82 19.28 1108.93 19.5947 1109.11 19.904C1109.3 20.2027 1109.57 20.4533 1109.91 20.656C1110.26 20.848 1110.68 20.944 1111.17 20.944C1111.81 20.944 1112.3 20.7733 1112.65 20.432C1112.99 20.0907 1113.16 19.6533 1113.16 19.12C1113.16 18.6613 1113.04 18.288 1112.79 18C1112.56 17.712 1112.26 17.488 1111.91 17.328C1111.56 17.1573 1111.08 16.976 1110.47 16.784C1109.76 16.5493 1109.18 16.3307 1108.74 16.128C1108.32 15.9147 1107.95 15.6 1107.64 15.184C1107.34 14.768 1107.19 14.2187 1107.19 13.536C1107.19 12.9493 1107.33 12.432 1107.61 11.984C1107.89 11.536 1108.3 11.1893 1108.82 10.944C1109.36 10.6987 1109.98 10.576 1110.69 10.576C1111.8 10.576 1112.68 10.848 1113.33 11.392C1113.98 11.9253 1114.36 12.608 1114.47 13.44H1112.9C1112.82 12.992 1112.59 12.5973 1112.21 12.256C1111.84 11.9147 1111.33 11.744 1110.69 11.744C1110.11 11.744 1109.64 11.8987 1109.29 12.208C1108.93 12.5067 1108.76 12.9333 1108.76 13.488C1108.76 13.9253 1108.87 14.2827 1109.09 14.56C1109.33 14.8267 1109.62 15.04 1109.96 15.2C1110.3 15.3493 1110.77 15.52 1111.37 15.712C1112.09 15.9467 1112.67 16.1707 1113.11 16.384C1113.56 16.5973 1113.94 16.9227 1114.25 17.36C1114.56 17.7867 1114.71 18.3573 1114.71 19.072ZM1120.65 13.104C1121.49 13.104 1122.25 13.2853 1122.91 13.648C1123.58 14.0107 1124.1 14.5333 1124.48 15.216C1124.86 15.8987 1125.05 16.6987 1125.05 17.616C1125.05 18.5333 1124.86 19.3333 1124.48 20.016C1124.1 20.688 1123.58 21.2053 1122.91 21.568C1122.25 21.9307 1121.49 22.112 1120.65 22.112C1119.81 22.112 1119.05 21.9307 1118.38 21.568C1117.72 21.2053 1117.2 20.688 1116.81 20.016C1116.43 19.3333 1116.24 18.5333 1116.24 17.616C1116.24 16.6987 1116.43 15.8987 1116.81 15.216C1117.2 14.5333 1117.72 14.0107 1118.38 13.648C1119.05 13.2853 1119.81 13.104 1120.65 13.104ZM1120.65 14.384C1120.13 14.384 1119.64 14.5013 1119.2 14.736C1118.76 14.9707 1118.4 15.3333 1118.12 15.824C1117.86 16.304 1117.72 16.9013 1117.72 17.616C1117.72 18.32 1117.86 18.9173 1118.12 19.408C1118.4 19.888 1118.76 20.2453 1119.2 20.48C1119.64 20.7147 1120.13 20.832 1120.65 20.832C1121.17 20.832 1121.65 20.7147 1122.09 20.48C1122.54 20.2453 1122.9 19.888 1123.16 19.408C1123.44 18.9173 1123.58 18.32 1123.58 17.616C1123.58 16.9013 1123.44 16.304 1123.16 15.824C1122.9 15.3333 1122.54 14.9707 1122.09 14.736C1121.65 14.5013 1121.17 14.384 1120.65 14.384ZM1128.41 10.16V22H1126.95V10.16H1128.41ZM1138.55 13.216V22H1137.1V19.936C1136.87 20.6507 1136.47 21.2 1135.9 21.584C1135.33 21.9573 1134.67 22.144 1133.91 22.144C1132.9 22.144 1132.08 21.8187 1131.45 21.168C1130.82 20.5067 1130.51 19.5627 1130.51 18.336V13.216H1131.96V18.192C1131.96 19.0667 1132.19 19.744 1132.63 20.224C1133.08 20.6933 1133.69 20.928 1134.46 20.928C1135.26 20.928 1135.9 20.672 1136.38 20.16C1136.86 19.6373 1137.1 18.88 1137.1 17.888V13.216H1138.55ZM1145.08 20.72V22H1143.99C1143.09 22 1142.42 21.7867 1141.97 21.36C1141.54 20.9333 1141.32 20.2187 1141.32 19.216V14.48H1140.01V13.216H1141.32V11.024H1142.79V13.216H1145.06V14.48H1142.79V19.248C1142.79 19.8133 1142.89 20.2027 1143.09 20.416C1143.31 20.6187 1143.67 20.72 1144.18 20.72H1145.08ZM1146.6 10.64C1146.6 10.3733 1146.69 10.16 1146.87 10C1147.05 9.82933 1147.29 9.744 1147.59 9.744C1147.89 9.744 1148.13 9.82933 1148.31 10C1148.49 10.16 1148.58 10.3733 1148.58 10.64C1148.58 10.9067 1148.49 11.1253 1148.31 11.296C1148.13 11.456 1147.89 11.536 1147.59 11.536C1147.29 11.536 1147.05 11.456 1146.87 11.296C1146.69 11.1253 1146.6 10.9067 1146.6 10.64ZM1148.31 13.216V22H1146.86V13.216H1148.31ZM1154.64 13.104C1155.48 13.104 1156.23 13.2853 1156.89 13.648C1157.56 14.0107 1158.09 14.5333 1158.46 15.216C1158.84 15.8987 1159.04 16.6987 1159.04 17.616C1159.04 18.5333 1158.84 19.3333 1158.46 20.016C1158.09 20.688 1157.56 21.2053 1156.89 21.568C1156.23 21.9307 1155.48 22.112 1154.64 22.112C1153.79 22.112 1153.04 21.9307 1152.36 21.568C1151.7 21.2053 1151.18 20.688 1150.8 20.016C1150.41 19.3333 1150.22 18.5333 1150.22 17.616C1150.22 16.6987 1150.41 15.8987 1150.8 15.216C1151.18 14.5333 1151.7 14.0107 1152.36 13.648C1153.04 13.2853 1153.79 13.104 1154.64 13.104ZM1154.64 14.384C1154.11 14.384 1153.63 14.5013 1153.18 14.736C1152.74 14.9707 1152.39 15.3333 1152.11 15.824C1151.84 16.304 1151.71 16.9013 1151.71 17.616C1151.71 18.32 1151.84 18.9173 1152.11 19.408C1152.39 19.888 1152.74 20.2453 1153.18 20.48C1153.63 20.7147 1154.11 20.832 1154.64 20.832C1155.16 20.832 1155.64 20.7147 1156.08 20.48C1156.52 20.2453 1156.88 19.888 1157.15 19.408C1157.43 18.9173 1157.56 18.32 1157.56 17.616C1157.56 16.9013 1157.43 16.304 1157.15 15.824C1156.88 15.3333 1156.52 14.9707 1156.08 14.736C1155.64 14.5013 1155.16 14.384 1154.64 14.384ZM1165.56 13.072C1166.58 13.072 1167.41 13.4027 1168.04 14.064C1168.67 14.7147 1168.98 15.6587 1168.98 16.896V22H1167.53V17.024C1167.53 16.1493 1167.3 15.4773 1166.85 15.008C1166.41 14.5387 1165.8 14.304 1165.03 14.304C1164.23 14.304 1163.59 14.5653 1163.11 15.088C1162.63 15.6 1162.39 16.352 1162.39 17.344V22H1160.93V13.216H1162.39V15.296C1162.61 14.5813 1163.01 14.032 1163.57 13.648C1164.15 13.264 1164.81 13.072 1165.56 13.072Z" fill="white" fill-opacity="0.7"/>
<path d="M16.4063 0C13.2417 -3.77363e-08 10.1483 0.938383 7.51713 2.69649C4.88594 4.45459 2.83518 6.95345 1.62418 9.87706C0.413176 12.8007 0.096322 16.0177 0.713685 19.1214C1.33105 22.2251 2.8549 25.0761 5.09254 27.3137C7.33018 29.5513 10.1811 31.0752 13.2848 31.6926C16.3885 32.3099 19.6056 31.9931 22.5292 30.7821C25.4528 29.5711 27.9517 27.5203 29.7098 24.8891C31.4679 22.2579 32.4062 19.1645 32.4062 16L24.4062 16C24.4062 17.5823 23.9371 19.129 23.058 20.4446C22.179 21.7602 20.9295 22.7855 19.4677 23.391C18.0059 23.9965 16.3974 24.155 14.8455 23.8463C13.2937 23.5376 11.8682 22.7757 10.7494 21.6569C9.63057 20.538 8.86865 19.1126 8.55997 17.5607C8.25129 16.0089 8.40971 14.4003 9.01521 12.9385C9.62072 11.4767 10.6461 10.2273 11.9617 9.34824C13.2773 8.46919 14.824 8 16.4063 8L16.4063 0Z" fill="white"/>
<path d="M16.4063 0C14.3051 -2.5056e-08 12.2245 0.413852 10.2833 1.21793C8.34211 2.022 6.57828 3.20055 5.09254 4.68629C3.6068 6.17203 2.42825 7.93586 1.62418 9.87707C0.820102 11.8183 0.40625 13.8989 0.40625 16L8.40625 16C8.40625 14.9494 8.61318 13.9091 9.01521 12.9385C9.41725 11.9679 10.0065 11.086 10.7494 10.3431C11.4923 9.60028 12.3742 9.011 13.3448 8.60896C14.3154 8.20693 15.3557 8 16.4063 8L16.4063 0Z" fill="#5CE1E6"/>
<circle cx="16.4062" cy="16" r="5" fill="#5CE1E6"/>
<path d="M21.4062 16C21.4062 15.3434 21.2769 14.6932 21.0256 14.0866C20.7744 13.48 20.4061 12.9288 19.9418 12.4645C19.4775 12.0002 18.9263 11.6319 18.3197 11.3806C17.713 11.1293 17.0629 11 16.4062 11C15.7496 11 15.0995 11.1293 14.4928 11.3806C13.8862 11.6319 13.335 12.0002 12.8707 12.4645C12.4064 12.9288 12.0381 13.48 11.7869 14.0866C11.5356 14.6932 11.4062 15.3434 11.4063 16L16.4062 16H21.4062Z" fill="white"/>
</svg>
